<?xml version="1.0" encoding="utf-8" ?>
<svg baseProfile="tiny" height="271" version="1.2" width="270" xmlns="http://www.w3.org/2000/svg" xmlns:ev="http://www.w3.org/2001/xml-events" xmlns:xlink="http://www.w3.org/1999/xlink"><defs /><path d="M17,164 Z M84,132 L83,133 L82,133 L76,139 L76,140 L75,141 L75,144 L84,153 L84,154 L85,154 L96,165 L96,166 L97,166 L98,167 L98,168 L99,168 L101,170 L101,171 L103,173 L104,173 L108,177 L108,178 L109,178 L110,179 L110,180 L121,191 L122,191 L123,192 L126,192 L155,163 L155,162 L156,161 L156,160 L155,159 L155,158 L150,153 L149,153 L148,152 L147,152 L146,153 L145,153 L127,171 L125,171 L107,153 L107,152 L106,151 L105,151 L104,150 L104,149 L103,149 L102,148 L102,147 L101,147 L100,146 L100,145 L99,145 L98,144 L98,143 L97,142 L96,142 L93,139 L93,138 L88,133 L87,133 L86,132 Z M155,89 L147,97 L147,102 L148,103 L148,104 L149,105 L149,106 L151,108 L151,110 L153,112 L153,113 L155,115 L155,116 L156,117 L156,118 L157,119 L157,120 L159,122 L159,123 L161,125 L161,126 L162,127 L161,128 L160,128 L159,127 L158,127 L157,126 L156,126 L154,124 L153,124 L152,123 L151,123 L150,122 L149,122 L148,121 L147,121 L146,120 L145,120 L144,119 L143,119 L142,118 L141,118 L140,117 L139,117 L138,116 L137,116 L136,115 L135,115 L134,114 L131,114 L130,115 L129,115 L122,122 L122,123 L121,124 L121,126 L123,128 L124,128 L125,129 L126,129 L127,130 L129,130 L130,131 L131,131 L132,132 L134,132 L135,133 L136,133 L137,134 L139,134 L140,135 L141,135 L142,136 L144,136 L145,137 L147,137 L148,138 L149,138 L150,139 L152,139 L153,140 L154,140 L155,141 L156,141 L157,142 L159,142 L160,143 L161,143 L162,144 L164,144 L165,145 L166,145 L167,146 L169,146 L171,148 L171,149 L172,150 L172,152 L173,153 L173,155 L172,156 L172,158 L169,161 L168,161 L166,163 L166,168 L167,169 L167,170 L168,171 L168,172 L170,174 L173,174 L174,173 L175,173 L177,171 L178,171 L181,168 L181,167 L184,164 L184,163 L185,162 L185,160 L186,159 L186,148 L185,147 L185,145 L184,144 L184,142 L183,141 L183,140 L182,139 L182,138 L181,137 L181,136 L180,135 L180,134 L179,133 L179,132 L178,131 L178,129 L177,128 L177,127 L176,126 L176,125 L175,124 L175,123 L174,122 L174,121 L173,120 L173,118 L172,117 L172,116 L171,115 L171,114 L170,113 L170,111 L168,109 L168,107 L167,106 L167,105 L166,104 L166,103 L165,102 L165,101 L164,100 L164,99 L163,98 L163,97 L162,96 L162,94 L161,93 L161,92 L160,91 L160,90 L159,89 Z" fill="black" /></svg>