<?xml version="1.0" ?><svg xmlns="http://www.w3.org/2000/svg" xmlns:xlink="http://www.w3.org/1999/xlink" width="470" height="130" xml:space="preserve" overflow="hidden"><g transform="translate(-1 0)"><path d="M65.9989 0 66 0.000361123 66 4.52487 65.9989 4.52451C63.3088 4.52451 60.6189 5.55299 58.572 7.60958L9.02495 57.5265C4.9361 61.6357 4.9361 68.3548 9.02495 72.4777L58.572 122.381C60.6189 124.445 63.3088 125.474 65.9989 125.473L66 125.473 66 130C62.1593 130 58.3192 128.529 55.3982 125.587L5.84214 75.6838C0 69.7903 0 60.205 5.84214 54.3118L55.3982 4.41328C58.3192 1.47122 62.1593 0 65.9989 0Z" fill="#EE7C34" fill-rule="evenodd"/><path d="M66 0 71.7292 1.10323C73.5619 1.83848 75.2777 2.94172 76.7603 4.41293L127.069 54.3206C133 60.2048 133 69.7901 127.069 75.6836L76.7697 125.587C73.7996 128.529 69.8991 130 66 130L66 125.473 73.5386 122.381 123.833 72.4779C127.989 68.3546 127.998 61.6406 123.833 57.5267L73.5386 7.6096 66 4.52452 66 0Z" fill="#EE7C34" fill-rule="evenodd"/><path d="M30.9932 15.0001 66 15.0001 66 19.4957 30.9839 19.4957C28.2036 19.4957 25.5738 20.592 23.5854 22.5804 21.5969 24.5687 20.5002 27.2031 20.4912 29.9926L20.5002 100.012C20.5002 105.796 25.2098 110.496 30.9839 110.505L66 110.505 66 115 30.9839 115C22.7345 114.996 16.0002 108.27 16.0002 100.012L16.0002 29.9926C16.0002 22.0025 23.0075 15.0001 30.9932 15.0001Z" fill="#EE7C34" fill-rule="evenodd"/><path d="M66 15.0001 101.718 15.0001C110.136 15.0091 116.986 21.7295 117 29.9832L117 100.012C117 103.998 115.403 107.761 112.512 110.596 109.616 113.435 105.778 115 101.704 115L66 115 66 110.505 101.704 110.505C107.398 110.505 112.415 105.582 112.415 100.012L112.41 29.9879C112.41 24.2047 107.612 19.4957 101.718 19.4957L66 19.4957 66 15.0001Z" fill="#EE7C34" fill-rule="evenodd"/><path d="M42.457 63.0028C43.1052 63.0058 43.7515 63.3307 44.3806 63.971L62.1981 82.1207 70.4936 73.677C71.7521 72.396 73.0743 72.4055 74.3418 73.6861L75.7372 75.116C76.9957 76.3874 77 77.7428 75.7419 79.0234L63.2595 91.724C62.0014 93.0002 60.6697 93.0002 59.4206 91.724L38.2676 70.1931C37.0048 68.9125 37.0001 67.5524 38.2586 66.2809L40.5234 63.9662C41.1593 63.3189 41.8092 62.9999 42.457 63.0028Z" fill="#56524D" fill-rule="evenodd"/><path d="M77.5813 42.1146C78.2395 42.2292 78.8275 42.7486 79.2484 43.6652L90.465 68.1306C93.0002 73.6907 91.2381 78.2602 88.3486 81.1485 87.41 82.1021 86.3199 82.7655 85.3581 83.2305 83.8308 83.9999 82.5103 83.2628 81.8847 81.6415L81.3326 80.1674C80.725 78.5827 81.2909 77.6661 82.1698 77.0534 82.5103 76.8507 82.9704 76.6066 83.4029 76.192 84.4886 75.0908 84.5897 73.23 83.9594 71.7559L83.4718 70.5535 61.2455 61.7598C59.3175 61.0089 59.0001 59.5069 60.4771 58.0238L63.2191 55.2783C64.3831 54.1173 65.6162 53.9377 67.0193 54.6425L75.9079 59.2537C77.2103 59.9215 79.3908 61.4003 79.3908 61.4003L79.46 61.3314C79.46 61.3314 78.0798 59.249 77.3483 58.0238L72.3932 49.3958C71.5926 47.954 71.7582 46.724 72.9221 45.5629L75.4895 42.9927C76.1934 42.2901 76.9227 41.9999 77.5813 42.1146Z" fill="#56524D" fill-rule="evenodd"/><path d="M167.518 47.0001 170.482 47.0001C172.137 47.0001 173 47.9644 173 49.7723L173 80.2185C173 82.0402 172.137 82.9998 170.482 82.9998L167.518 82.9998C165.872 82.9998 165 82.0402 165 80.2185L165 49.7723C165 47.9644 165.872 47.0001 167.518 47.0001Z" fill="#56524D" fill-rule="evenodd"/><path d="M189.735 47.0001 193.609 47.0001C195.141 47.0001 196.139 47.5516 196.884 48.8682L205.625 63.8181C207.011 66.1822 208.602 69.96 208.602 69.96L208.708 69.96C208.708 69.96 208.305 66.08 208.305 63.8181L208.305 49.7723C208.305 47.9644 209.252 47.0001 211.04 47.0001L214.256 47.0001C216.049 47.0001 217 47.9644 217 49.7723L217 80.2185C217 82.0402 216.049 82.9998 214.256 82.9998L210.396 82.9998C208.904 82.9998 207.903 82.4392 207.157 81.1317L198.371 66.2286C196.98 63.8688 195.398 60.0954 195.398 60.0954L195.297 60.0954C195.297 60.0954 195.681 63.9663 195.681 66.2286L195.681 80.2185C195.681 82.0402 194.744 82.9998 192.96 82.9998L189.735 82.9998C187.938 82.9998 187 82.0402 187 80.2185L187 49.7723C187 47.9644 187.938 47.0001 189.735 47.0001Z" fill="#56524D" fill-rule="evenodd"/><path d="M242.064 46.0001C246.269 46.0001 250.102 47.4524 251.835 48.6553 253.288 49.7156 253.446 50.9604 252.687 52.4127L251.467 54.7638C250.456 56.7185 249.096 56.4187 247.68 55.7134 246.013 54.9159 244.351 54.0676 241.966 54.0676 239.191 54.0676 238.017 55.1649 238.017 56.566 238.017 61.7801 254 60.5263 254 71.8389 254 77.8504 249.45 82.9998 241.31 82.9998 236.252 82.9998 231.749 80.9438 229.83 79.4501 228.764 78.5975 228 77.4864 229.323 75.6423L230.887 73.3882C231.903 71.9315 233.057 71.8389 234.734 72.7428 235.893 73.3374 238.166 74.9418 241.31 74.9418 243.941 74.9418 245.147 73.8397 245.147 72.4386 245.147 67.3767 229.169 68.188 229.169 56.9766 229.169 50.361 234.734 46.0001 242.064 46.0001Z" fill="#56524D" fill-rule="evenodd"/><path d="M267.704 47.0001 270.908 47.0001C272.686 47.0001 273.616 47.9644 273.616 49.7723L273.616 75.4486 285.296 75.4486C287.061 75.4486 288 76.4035 288 78.2113L288 80.2185C288 82.0402 287.061 82.9998 285.296 82.9998L267.704 82.9998C265.926 82.9998 265 82.0402 265 80.2185L265 49.7723C265 47.9644 265.926 47.0001 267.704 47.0001Z" fill="#56524D" fill-rule="evenodd"/><path d="M292.021 47.0001 295.985 47.0001C297.548 47.0001 298.552 47.6538 299.195 49.0627L302.322 55.6639C303.469 58.1255 304.477 60.8418 304.477 60.8418L304.579 60.8418C304.579 60.8418 305.578 58.1255 306.734 55.6639L309.801 49.0627C310.458 47.6538 311.457 47.0001 313.016 47.0001L316.98 47.0001C319.14 47.0001 320 48.4141 318.899 50.333L308.894 68.2496 308.894 80.2185C308.894 82.0402 307.946 82.9998 306.133 82.9998L302.867 82.9998C301.064 82.9998 300.115 82.0402 300.115 80.2185L300.115 68.2496 290.11 50.333C289 48.4141 289.86 47.0001 292.021 47.0001Z" fill="#56524D" fill-rule="evenodd"/><path d="M337.686 73.9999 340.323 73.9999C342.079 73.9999 343 75.0351 343 77.0203L343 79.9798C343 81.9647 342.079 82.9998 340.323 82.9998L337.686 82.9998C335.921 82.9998 335 81.9647 335 79.9798L335 77.0203C335 75.0351 335.921 73.9999 337.686 73.9999Z" fill="#EE7C34" fill-rule="evenodd"/><path d="M366.949 46.0001C372.516 46.0001 376.405 47.9535 378.521 49.4046 379.935 50.4091 380.037 51.7589 379.13 53.2057L377.87 55.2603C376.907 56.8177 375.642 56.9697 374.07 56.016 372.409 55.0623 370.028 54.0074 367.354 54.0074 360.126 54.0074 357.149 59.0657 357.149 64.2304 357.149 69.5286 360.377 74.9878 367.354 74.9878 370.381 74.9878 373.019 73.6336 374.744 72.4358 376.251 71.3852 377.558 71.436 378.623 72.9331L380.037 74.8913C381 76.2872 380.949 77.6922 379.586 78.7428 377.316 80.4982 373.07 82.9998 366.949 82.9998 355.321 82.9998 348 75.0386 348 64.4285 348 54.0074 355.777 46.0001 366.949 46.0001Z" fill="#EE7C34" fill-rule="evenodd"/><path d="M405.995 46.0001 406 46.0008 406 54.0092 405.995 54.0074C400.248 54.0074 396.194 58.416 396.194 64.2765 396.194 70.3854 400.248 74.9878 405.995 74.9878L406 74.986 406 82.9987 405.995 82.9998C394.711 82.9998 387 74.7945 387 64.2765 387 54.0074 394.711 46.0001 405.995 46.0001Z" fill="#EE7C34" fill-rule="evenodd"/><path d="M406 46.0001 413.314 47.4109C419.88 50.1445 424 56.5741 424 64.2767 424 72.1654 419.88 78.7535 413.314 81.5542L406 82.9998 406 74.9863 412.681 71.9234C414.324 70.0093 415.285 67.3313 415.285 64.2767 415.285 61.3461 414.324 58.7787 412.681 56.9441L406 54.0088 406 46.0001Z" fill="#EE7C34" fill-rule="evenodd"/><path d="M438.396 47.0001 442.809 47.0001C444.379 47.0001 445.363 47.7043 445.85 49.2615L450.213 62.2036C450.998 64.5205 451.982 68.1488 451.982 68.1488L452.081 68.1488C452.081 68.1488 453.06 64.5205 453.832 62.2036L458.204 49.2615C458.7 47.7043 459.675 47.0001 461.245 47.0001L465.662 47.0001C467.377 47.0001 468.302 47.9039 468.455 49.6647L470.86 80.1316C471 81.9436 470.066 82.9998 468.302 82.9998L465.112 82.9998C463.406 82.9998 462.468 82.0964 462.319 80.3309L461.439 66.7911C461.245 64.0663 461.439 60.7486 461.439 60.7486L461.34 60.7486C461.34 60.7486 460.171 64.5205 459.377 66.7911L456.494 75.002C455.948 76.5034 454.969 77.2076 453.403 77.2076L450.651 77.2076C449.085 77.2076 448.106 76.5034 447.569 75.002L444.677 66.7911C443.883 64.5205 442.714 60.7486 442.714 60.7486L442.615 60.7486C442.615 60.7486 442.809 64.0663 442.615 66.7911L441.735 80.3309C441.586 82.0964 440.652 82.9998 438.933 82.9998L435.698 82.9998C433.934 82.9998 433 81.9436 433.149 80.1316L435.599 49.6647C435.752 47.9039 436.686 47.0001 438.396 47.0001Z" fill="#EE7C34" fill-rule="evenodd"/></g></svg>