<?xml version="1.0" encoding="utf-8"?>
<svg viewBox="0.4605 0 130.0567 130" xmlns="http://www.w3.org/2000/svg">
  <path d="M 64.999 0 L 65 0 L 65 4.525 L 64.999 4.525 C 62.309 4.525 59.619 5.553 57.572 7.61 L 8.025 57.527 C 3.936 61.636 3.936 68.355 8.025 72.478 L 57.572 122.381 C 59.619 124.445 62.309 125.474 64.999 125.473 L 65 125.473 L 65 130 C 61.159 130 57.319 128.529 54.398 125.587 L 4.842 75.684 C -1 69.79 -1 60.205 4.842 54.312 L 54.398 4.413 C 57.319 1.471 61.159 0 64.999 0 Z" fill="#EE7C34" fill-rule="evenodd" transform="matrix(0.9999999999999999, 0, 0, 0.9999999999999999, 0, -3.552713678800501e-15)"/>
  <path d="M 65 0 L 70.729 1.103 C 72.562 1.838 74.278 2.942 75.76 4.413 L 126.069 54.321 C 132 60.205 132 69.79 126.069 75.684 L 75.77 125.587 C 72.8 128.529 68.899 130 65 130 L 65 125.473 L 72.539 122.381 L 122.833 72.478 C 126.989 68.355 126.998 61.641 122.833 57.527 L 72.539 7.61 L 65 4.525 L 65 0 Z" fill="#EE7C34" fill-rule="evenodd" transform="matrix(0.9999999999999999, 0, 0, 0.9999999999999999, 0, -3.552713678800501e-15)"/>
  <path d="M 29.993 15 L 65 15 L 65 19.496 L 29.984 19.496 C 27.204 19.496 24.574 20.592 22.585 22.58 C 20.597 24.569 19.5 27.203 19.491 29.993 L 19.5 100.012 C 19.5 105.796 24.21 110.496 29.984 110.505 L 65 110.505 L 65 115 L 29.984 115 C 21.734 114.996 15 108.27 15 100.012 L 15 29.993 C 15 22.003 22.007 15 29.993 15 Z" fill="#EE7C34" fill-rule="evenodd" transform="matrix(0.9999999999999999, 0, 0, 0.9999999999999999, 0, -3.552713678800501e-15)"/>
  <path d="M 65 15 L 100.718 15 C 109.136 15.009 115.986 21.73 116 29.983 L 116 100.012 C 116 103.998 114.403 107.761 111.512 110.596 C 108.616 113.435 104.778 115 100.704 115 L 65 115 L 65 110.505 L 100.704 110.505 C 106.398 110.505 111.415 105.582 111.415 100.012 L 111.41 29.988 C 111.41 24.205 106.612 19.496 100.718 19.496 L 65 19.496 L 65 15 Z" fill="#EE7C34" fill-rule="evenodd" transform="matrix(0.9999999999999999, 0, 0, 0.9999999999999999, 0, -3.552713678800501e-15)"/>
  <path d="M 41.457 63.003 C 42.105 63.006 42.751 63.331 43.381 63.971 L 61.198 82.121 L 69.494 73.677 C 70.752 72.396 72.074 72.406 73.342 73.686 L 74.737 75.116 C 75.996 76.387 76 77.743 74.742 79.023 L 62.259 91.724 C 61.001 93 59.67 93 58.421 91.724 L 37.268 70.193 C 36.005 68.913 36 67.552 37.259 66.281 L 39.523 63.966 C 40.159 63.319 40.809 63 41.457 63.003 Z" fill="#56524D" fill-rule="evenodd" transform="matrix(0.9999999999999999, 0, 0, 0.9999999999999999, 0, -3.552713678800501e-15)"/>
  <path d="M 76.581 42.115 C 77.239 42.229 77.827 42.749 78.248 43.665 L 89.465 68.131 C 92 73.691 90.238 78.26 87.349 81.149 C 86.41 82.102 85.32 82.766 84.358 83.231 C 82.831 84 81.51 83.263 80.885 81.642 L 80.333 80.167 C 79.725 78.583 80.291 77.666 81.17 77.053 C 81.51 76.851 81.97 76.607 82.403 76.192 C 83.489 75.091 83.59 73.23 82.959 71.756 L 82.472 70.554 L 60.245 61.76 C 58.317 61.009 58 59.507 59.477 58.024 L 62.219 55.278 C 63.383 54.117 64.616 53.938 66.019 54.643 L 74.908 59.254 C 76.21 59.922 78.391 61.4 78.391 61.4 L 78.46 61.331 C 78.46 61.331 77.08 59.249 76.348 58.024 L 71.393 49.396 C 70.593 47.954 70.758 46.724 71.922 45.563 L 74.489 42.993 C 75.193 42.29 75.923 42 76.581 42.115 Z" fill="#56524D" fill-rule="evenodd" transform="matrix(0.9999999999999999, 0, 0, 0.9999999999999999, 0, -3.552713678800501e-15)"/>
</svg>